# xmcd
#
# Track frame offsets: 
#        150
#        13483
#        27438
#        39215
#        54224
#        67313
#        81671
#        96211
#        116067
#        141385
#        159552
#        174851
#        195555
#        223803
#        243677
#        257094
#
# Disc length: 3604 seconds
#
# Revision: 0
# Processed by: cddbd v1.5.1PL2 Copyright (c) Steve Scherf et al.
# Submitted via: ExactAudioCopy v0.95b3
#
DISCID=ef0e1210
DTITLE=Prickly Pair - Pony Tracks
DYEAR=2005
DGENRE=Country
TTITLE0=Cindy, Cindy-Old Joe Clark-Red Haired Boy-Shady Grove
TTITLE1=All the Pretty Little Horses
TTITLE2=Round Up Time on the Pitchfork
TTITLE3=The Legend of Jack Bliss
TTITLE4=Pony Tracks
TTITLE5=Richmond
TTITLE6=Whiskey in the Jar
TTITLE7=Lakes of Ponchatrain
TTITLE8=The Strawberry Roan
TTITLE9=Where the Ponies Come to Drink
TTITLE10=Waitin' For a Train
TTITLE11=Pretty Painted Ladies
TTITLE12=Skewball-Stewball
TTITLE13=The Pearl of Them All
TTITLE14=The Zebra Dun
TTITLE15=The Reins of Glory
EXTD=
EXTT0=
EXTT1=
EXTT2=
EXTT3=
EXTT4=
EXTT5=
EXTT6=
EXTT7=
EXTT8=
EXTT9=
EXTT10=
EXTT11=
EXTT12=
EXTT13=
EXTT14=
EXTT15=
PLAYORDER=
